<svg width="200" height="192" viewBox="0 0 200 192" fill="none" xmlns="http://www.w3.org/2000/svg">
<g clip-path="url(#clip0_171_2776)">
<path d="M180.109 185.924C180.866 185.972 181.285 185.031 180.712 184.482L180.655 184.256C180.663 184.238 180.67 184.22 180.678 184.201C181.444 182.375 184.039 182.388 184.799 184.217C185.473 185.84 186.331 187.466 186.542 189.183C186.637 189.94 186.594 190.712 186.426 191.456C188.005 188.006 188.837 184.239 188.837 180.45C188.837 179.498 188.784 178.546 188.678 177.597C188.59 176.82 188.47 176.049 188.313 175.284C187.468 171.15 185.638 167.212 182.998 163.923C181.728 163.229 180.67 162.145 180.031 160.845C179.801 160.376 179.621 159.872 179.536 159.358C179.68 159.377 180.08 157.177 179.972 157.042C180.173 156.737 180.533 156.585 180.753 156.287C181.846 154.805 183.353 155.064 184.139 157.078C185.819 157.926 185.835 159.332 184.804 160.684C184.148 161.544 184.058 162.708 183.483 163.629C183.542 163.705 183.604 163.779 183.663 163.854C184.748 165.247 185.687 166.743 186.479 168.315C186.255 166.568 186.585 164.463 187.148 163.106C187.789 161.56 188.99 160.258 190.048 158.922C191.319 157.316 193.924 158.017 194.148 160.052C194.15 160.072 194.152 160.091 194.155 160.111C193.997 160.2 193.844 160.294 193.693 160.393C192.836 160.96 193.132 162.29 194.148 162.447L194.171 162.45C194.114 163.016 194.017 163.577 193.875 164.129C195.232 169.377 192.302 171.289 188.119 171.375C188.027 171.422 187.937 171.469 187.844 171.514C188.268 172.708 188.607 173.932 188.858 175.172C189.083 176.269 189.239 177.377 189.327 178.49C189.436 179.894 189.426 181.305 189.308 182.707L189.315 182.657C189.616 181.113 190.454 179.671 191.671 178.672C193.484 177.183 196.045 176.634 198.001 175.437C198.943 174.861 200.149 175.606 199.985 176.697L199.977 176.749C199.686 176.868 199.402 177.005 199.127 177.159C198.97 177.248 198.816 177.342 198.665 177.441C197.808 178.008 198.104 179.338 199.12 179.495L199.143 179.498C199.16 179.501 199.174 179.503 199.191 179.505C198.691 180.692 197.995 181.793 197.124 182.742C196.275 187.324 192.631 187.758 188.732 186.424H188.73C188.304 188.28 187.681 190.094 186.881 191.823H180.275C180.251 191.749 180.23 191.673 180.208 191.6C180.819 191.638 181.435 191.602 182.036 191.491C181.546 190.89 181.056 190.284 180.566 189.682C180.554 189.67 180.545 189.658 180.535 189.647C180.286 189.339 180.035 189.033 179.787 188.726L179.787 188.725C179.771 187.78 179.885 186.838 180.109 185.924Z" fill="#F2F2F2"/>
<path d="M58.5645 191.476C58.5645 191.718 58.7588 191.912 59.0007 191.912H199.512C199.754 191.912 199.949 191.718 199.949 191.476C199.949 191.234 199.754 191.039 199.512 191.039H59.0007C58.7588 191.039 58.5645 191.234 58.5645 191.476Z" fill="#CCCCCC"/>
<path d="M79.8857 191.726H15.2095C7.32338 191.726 0.907471 185.31 0.907471 177.424V38.4303C0.907471 30.5441 7.32338 24.1282 15.2095 24.1282H79.8857C87.7717 24.1282 94.1876 30.5441 94.1876 38.4303V177.424C94.1876 185.31 87.7717 191.726 79.8857 191.726Z" fill="#3F3D56"/>
<path d="M94.1877 75.2546C93.854 75.2546 93.5826 75.526 93.5826 75.8597V95.2212C93.5826 95.5548 93.854 95.8262 94.1877 95.8262C94.5214 95.8262 94.7927 95.5548 94.7927 95.2212V75.8597C94.7927 75.526 94.5214 75.2546 94.1877 75.2546Z" fill="#3F3D56"/>
<path d="M92.8265 38.4304V177.422C92.8265 184.286 87.4839 189.901 80.7286 190.336H80.7255C80.6257 190.342 80.5259 190.348 80.423 190.351C80.2445 190.36 80.066 190.363 79.8845 190.363C79.8845 190.363 79.219 190.315 78.0028 190.224C76.7746 190.134 74.9867 189.997 72.7571 189.819C72.0885 189.768 71.3836 189.71 70.6394 189.65C69.1571 189.529 67.5295 189.395 65.7839 189.244C65.0881 189.187 64.3681 189.123 63.633 189.06C59.8757 188.736 55.6676 188.358 51.2296 187.928C50.4793 187.859 49.723 187.786 48.9606 187.71C48.761 187.689 48.5583 187.671 48.3556 187.65C45.1912 187.338 2.26904 179.043 2.26904 177.422V38.4304C2.26904 31.2818 8.06236 25.4885 15.211 25.4885H22.9374C24.1717 25.4885 25.164 26.4505 25.2699 27.6818C25.2789 27.7634 25.288 27.8451 25.3031 27.9268C25.527 29.1641 26.6615 30.0263 27.92 30.0263H67.1756C68.434 30.0263 69.5685 29.1641 69.7924 27.9268C69.8075 27.8451 69.8166 27.7634 69.8257 27.6818C69.9315 26.4505 70.9238 25.4885 72.1581 25.4885H79.8845C87.0331 25.4885 92.8265 31.2818 92.8265 38.4304Z" fill="white"/>
<path d="M0.605044 60.7336C0.271353 60.7336 0 61.0049 0 61.3386V66.179C0 66.5127 0.271356 66.784 0.605044 66.784C0.938733 66.784 1.21009 66.5127 1.21009 66.179V61.3386C1.21009 61.0049 0.938733 60.7336 0.605044 60.7336Z" fill="#3F3D56"/>
<path d="M0.605044 75.2546C0.271353 75.2546 0 75.526 0 75.8597V85.2379C0 85.5716 0.271356 85.8429 0.605044 85.8429C0.938733 85.8429 1.21009 85.5716 1.21009 85.2379V75.8597C1.21009 75.526 0.938733 75.2546 0.605044 75.2546Z" fill="#3F3D56"/>
<path d="M0.605044 88.5657C0.271353 88.5657 0 88.837 0 89.1707V98.5489C0 98.8826 0.271356 99.154 0.605044 99.154C0.938733 99.154 1.21009 98.8826 1.21009 98.5489V89.1707C1.21009 88.837 0.938733 88.5657 0.605044 88.5657Z" fill="#3F3D56"/>
<path d="M22.7268 27.6073H11.1558C11.093 27.6073 11.0421 27.6582 11.0421 27.721V29.0062C11.0421 29.069 11.093 29.1199 11.1558 29.1199H22.7268C22.7896 29.1199 22.8405 29.069 22.8405 29.0062V27.721C22.8405 27.6582 22.7896 27.6073 22.7268 27.6073Z" fill="#E6E6E6"/>
<path d="M74.07 29.1199C74.7383 29.1199 75.28 28.5781 75.28 27.9098C75.28 27.2415 74.7383 26.6997 74.07 26.6997C73.4016 26.6997 72.8599 27.2415 72.8599 27.9098C72.8599 28.5781 73.4016 29.1199 74.07 29.1199Z" fill="#E6E6E6"/>
<path d="M77.3977 29.1199C78.066 29.1199 78.6078 28.5781 78.6078 27.9098C78.6078 27.2415 78.066 26.6997 77.3977 26.6997C76.7294 26.6997 76.1876 27.2415 76.1876 27.9098C76.1876 28.5781 76.7294 29.1199 77.3977 29.1199Z" fill="#E6E6E6"/>
<path d="M80.7255 29.1199C81.3938 29.1199 81.9356 28.5781 81.9356 27.9098C81.9356 27.2415 81.3938 26.6997 80.7255 26.6997C80.0572 26.6997 79.5154 27.2415 79.5154 27.9098C79.5154 28.5781 80.0572 29.1199 80.7255 29.1199Z" fill="#E6E6E6"/>
<path d="M73.0579 109.434H21.7348C20.9263 109.434 20.2684 108.776 20.2684 107.968C20.2684 107.159 20.9263 106.501 21.7348 106.501H73.0579C73.8665 106.501 74.5243 107.159 74.5243 107.968C74.5243 108.776 73.8665 109.434 73.0579 109.434Z" fill="#E6E6E6"/>
<path d="M47.5804 166.256C59.3233 166.256 68.8429 156.736 68.8429 144.994C68.8429 133.251 59.3233 123.731 47.5804 123.731C35.8375 123.731 26.318 133.251 26.318 144.994C26.318 156.736 35.8375 166.256 47.5804 166.256Z" fill="#2B4E78"/>
<path d="M50.9596 138.051C49.1652 138.125 47.1366 138.248 45.8103 139.625C44.658 140.821 44.4055 142.596 45.574 143.873C46.7455 145.154 48.5671 145.327 49.9175 146.326C51.5032 147.499 51.271 149.819 49.7365 150.931C47.927 152.242 45.5906 151.631 43.9363 150.383C43.5124 150.064 43.1009 150.78 43.52 151.096C45.0022 152.213 46.9362 152.835 48.7687 152.3C50.4226 151.818 51.7046 150.469 51.835 148.715C51.8973 147.878 51.6592 147.028 51.1387 146.367C50.5891 145.67 49.7976 145.24 48.9975 144.891C47.6201 144.29 45.2484 143.512 45.6489 141.554C46.1343 139.18 49.023 138.955 50.9597 138.876C51.4886 138.854 51.4913 138.029 50.9596 138.051Z" fill="white"/>
<path d="M47.6307 136.928L47.5516 155.036C47.5493 155.567 48.3742 155.567 48.3765 155.036L48.4556 136.928C48.4579 136.398 47.633 136.397 47.6307 136.928Z" fill="white"/>
<path d="M160.233 0H55.4017C51.5561 0 48.4291 3.12703 48.4291 6.9726V78.8103C48.4291 82.6558 51.5561 85.7829 55.4017 85.7829H160.233C164.078 85.7829 167.205 82.6558 167.205 78.8103V6.9726C167.205 3.12703 164.078 0 160.233 0Z" fill="white"/>
<path d="M107.335 42.7139C113.814 42.7139 119.066 37.4618 119.066 30.9829C119.066 24.5041 113.814 19.252 107.335 19.252C100.856 19.252 95.6042 24.5041 95.6042 30.9829C95.6042 37.4618 100.856 42.7139 107.335 42.7139Z" fill="#2B4E78"/>
<path d="M109.561 25.748C108.109 25.8079 106.474 25.8999 105.375 26.9806C104.465 27.8757 104.147 29.2692 104.983 30.3232C105.864 31.4329 107.328 31.6434 108.477 32.3526C109.191 32.7933 109.664 33.461 109.68 34.3191C109.694 35.1224 109.323 35.873 108.704 36.3765C107.183 37.6118 105.109 37.1004 103.671 36.0201C103.387 35.8075 103.113 36.2847 103.393 36.4949C104.584 37.3897 106.119 37.9093 107.601 37.5243C108.966 37.17 110.065 36.0964 110.213 34.6619C110.369 33.15 109.376 32.1205 108.089 31.5299C106.912 30.9901 104.848 30.4149 105.043 28.7378C105.29 26.6055 107.901 26.3663 109.561 26.2979C109.913 26.2834 109.915 25.7334 109.561 25.748Z" fill="white"/>
<path d="M107.037 24.7508L106.971 39.8391C106.97 40.193 107.52 40.1935 107.521 39.8391L107.587 24.7508C107.589 24.3969 107.039 24.3965 107.037 24.7508Z" fill="white"/>
<path d="M160.233 0H55.4017C51.5561 0 48.4291 3.12703 48.4291 6.9726V78.8103C48.4291 82.6558 51.5561 85.7829 55.4017 85.7829H160.233C164.078 85.7829 167.205 82.6558 167.205 78.8103V6.9726C167.205 3.12703 164.078 0 160.233 0ZM166.472 78.8103C166.472 82.2526 163.675 85.0497 160.233 85.0497H55.4017C51.9594 85.0497 49.1623 82.2526 49.1623 78.8103V6.9726C49.1623 3.5303 51.9594 0.733187 55.4017 0.733187H160.233C163.675 0.733187 166.472 3.5303 166.472 6.9726V78.8103Z" fill="#3F3D56"/>
<path d="M95.7307 7.09357H85.4441C84.9272 7.09357 84.5056 7.51516 84.5056 8.03205C84.5056 8.5526 84.9272 8.9742 85.4441 8.9742H95.7307C96.2476 8.9742 96.6692 8.55261 96.6692 8.03205C96.6692 7.51516 96.2476 7.09357 95.7307 7.09357Z" fill="#E6E6E6"/>
<path d="M112.961 7.09357H102.674C102.157 7.09357 101.735 7.51516 101.735 8.03205C101.735 8.5526 102.157 8.9742 102.674 8.9742H112.961C113.477 8.9742 113.899 8.55261 113.899 8.03205C113.899 7.51516 113.477 7.09357 112.961 7.09357Z" fill="#E6E6E6"/>
<path d="M130.191 7.09357H119.904C119.387 7.09357 118.965 7.51516 118.965 8.03205C118.965 8.5526 119.387 8.9742 119.904 8.9742H130.191C130.707 8.9742 131.129 8.55261 131.129 8.03205C131.129 7.51516 130.707 7.09357 130.191 7.09357Z" fill="#E6E6E6"/>
<path d="M147.156 49.3126H68.4781C65.2044 49.3126 62.543 51.9741 62.543 55.2478V60.6074C62.543 63.881 65.2044 66.5425 68.4781 66.5425H147.156C150.43 66.5425 153.092 63.881 153.092 60.6074V55.2478C153.092 51.9741 150.43 49.3126 147.156 49.3126Z" fill="#2B4E78"/>
<path d="M26.8271 77.5316L23.8101 76.1024C25.0475 77.8293 26.1138 80.5264 26.6847 82.6726C27.6512 80.6734 29.2093 78.2273 30.7516 76.7661L27.5629 77.5864C29.5277 67.9568 36.918 61.0436 45.3809 61.0436V60.3104C36.5412 60.3104 28.8333 67.5131 26.8271 77.5316Z" fill="#3F3D56"/>
<path d="M40.7133 92.2041H21.6505C20.8419 92.2041 20.1841 91.5462 20.1841 90.7377C20.1841 89.9291 20.8419 89.2713 21.6505 89.2713H40.7133C41.5219 89.2713 42.1797 89.9291 42.1797 90.7377C42.1797 91.5462 41.5219 92.2041 40.7133 92.2041Z" fill="#E6E6E6"/>
<path d="M167.526 87.4282L167.333 102.399L163.608 115.745L160.63 114.635L161.952 102.402L161.779 85.8473L167.526 87.4282Z" fill="#FFB6B6"/>
<path d="M163.595 117.897C163.945 115.978 163.304 114.255 162.165 114.047C161.025 113.84 159.818 115.227 159.469 117.146C159.12 119.065 159.76 120.789 160.899 120.997C162.039 121.204 163.246 119.817 163.595 117.897Z" fill="#FFB6B6"/>
<path d="M163.005 69.6019C163.005 69.6019 169.387 69.6898 169.381 73.0796C169.378 74.9935 168.967 92.3709 167.823 102.928C166.941 111.068 165.257 113.192 165.257 113.192L161.224 104.027L163.005 69.6019Z" fill="#E6E6E6"/>
<path d="M162.841 100.19H141.29C143.096 96.1587 144.207 92.3199 142.471 89.2663L162.841 88.0854C161.823 92.2076 161.699 96.253 162.841 100.19Z" fill="#FFB6B6"/>
<path d="M160.184 64.4677L151.623 63.8773L148.08 68.3056L146.284 68.6321C143.592 69.1216 141.675 71.5241 141.795 74.2578L142.494 90.1359L162.957 91.6281L167.86 70.9514L161.955 68.6008L160.184 64.4677Z" fill="#E6E6E6"/>
<path d="M107.973 69.2575C108.58 69.8039 109.014 70.4423 109.243 71.0614L115.358 75.9014L112.97 78.7439L107.024 73.5282C106.384 73.3657 105.704 73.0017 105.096 72.4553C103.709 71.207 103.228 69.4791 104.022 68.5961C104.817 67.7131 106.585 68.0092 107.973 69.2575Z" fill="#FFB6B6"/>
<path d="M151.208 73.3321L127.777 89.1541L110.981 77.4656L113.502 72.8979L126.722 80.5805L138.913 71.2197C143.254 67.142 148.695 67.9325 151.208 73.3321Z" fill="#E6E6E6"/>
<path d="M155.396 62.5512C158.904 62.5512 161.747 59.7076 161.747 56.1997C161.747 52.6918 158.904 49.8481 155.396 49.8481C151.888 49.8481 149.044 52.6918 149.044 56.1997C149.044 59.7076 151.888 62.5512 155.396 62.5512Z" fill="#FFB6B6"/>
<path d="M164.029 54.6392V55.871L156.866 53.8547L151.495 54.9801C151.433 54.1626 151.191 53.3598 150.788 52.6486C151.068 53.7893 151.1 54.6717 150.802 55.1268L150.08 55.2771C149.963 54.9581 149.735 54.6795 149.438 54.5109C149.409 54.4926 149.373 54.4779 149.34 54.4889C149.288 54.5072 149.285 54.5732 149.285 54.6245C149.292 54.8958 149.299 55.1671 149.31 55.4384L147.235 55.871V54.6392C145.245 50.1602 150.491 46.2844 155.634 46.2442C157.954 46.2261 160.051 47.1827 161.573 48.7004C163.09 50.2217 164.029 52.3187 164.029 54.6392Z" fill="#2F2E41"/>
<path d="M168.059 69.0824L167.518 69.0376C167.556 68.8607 167.595 68.686 167.63 68.5092C167.93 67.0246 167.27 65.1348 167.221 63.7085C166.967 65.2154 167.402 67.0694 166.952 68.5002C166.901 68.6592 164.944 69.6851 164.89 69.8419C162.724 69.0496 160.468 66.5183 157.913 67.9968C156.403 68.8712 154.679 68.4879 152.963 68.0876C152.539 67.9885 152.48 65.8917 152.06 65.8093C151.307 65.6618 150.202 67.5678 149.493 67.6423L152.426 56.2779C152.426 50.0956 151.854 43.6094 159.685 45.7954C161.654 46.3452 163.604 46.7761 165.057 48.4018C166.511 50.0296 167.546 52.3046 167.913 54.8952C168.134 56.4581 169.514 61.7649 168.059 69.0824Z" fill="#2F2E41"/>
<path d="M163.002 183.363L159.506 183.445L157.557 167.739L162.716 167.617L163.002 183.363Z" fill="#FFB7B7"/>
<path d="M151.007 190.657C151.007 191.247 151.426 191.726 151.943 191.726H158.883C158.883 191.726 159.565 188.981 162.35 187.8L162.542 191.726H166.122L165.688 185.413C165.688 185.413 166.646 182.035 164.657 180.308C162.668 178.582 164.279 178.822 164.279 178.822L163.496 174.915L158.087 175.551L158.047 181.685L155.422 187.773L151.572 189.675C151.229 189.844 151.007 190.23 151.007 190.657Z" fill="#2F2E41"/>
<path d="M152.365 180.803L149.005 181.77L143.134 167.073L148.093 165.645L152.365 180.803Z" fill="#FFB7B7"/>
<path d="M142.614 190.902C142.764 191.473 143.291 191.83 143.791 191.699L150.503 189.938C150.503 189.938 150.467 187.11 152.861 185.26L154.043 189.009L157.505 188.101L155.484 182.104C155.484 182.104 155.553 178.594 153.191 177.429C150.829 176.263 152.448 176.087 152.448 176.087L150.7 172.506L145.629 174.494L147.147 180.437L146.153 186.993L142.911 189.809C142.623 190.06 142.506 190.49 142.614 190.902Z" fill="#2F2E41"/>
<path d="M160.858 99.2617L163.057 99.9948C166.496 106.346 167.954 114.781 167.761 124.952L163.854 170.634H157.462L152.784 119.742L144.536 138.844L150.571 170.634L144.536 171.249L132.38 138.193L140.846 99.7729L160.858 99.2617Z" fill="#2F2E41"/>
</g>
<defs>
<clipPath id="clip0_171_2776">
<rect width="200" height="191.912" fill="white"/>
</clipPath>
</defs>
</svg>
