<svg width="280" height="214" viewBox="0 0 280 214" fill="none" xmlns="http://www.w3.org/2000/svg">
<g clip-path="url(#clip0_42_80)">
<path d="M117.897 0L117.768 0.581699L223.946 0.710977C254.511 0.710977 279.289 25.4886 279.289 56.0535V121.222H280V8.06605C280 3.61129 276.389 0 271.934 0H117.897Z" fill="#E6E6E6"/>
<path d="M234.842 27.7494C236.502 27.7494 237.848 26.3734 237.848 24.6761C237.848 22.9788 236.502 21.6029 234.842 21.6029C233.181 21.6029 231.835 22.9788 231.835 24.6761C231.835 26.3734 233.181 27.7494 234.842 27.7494Z" fill="#3F3D56"/>
<path d="M224.456 27.7494C226.117 27.7494 227.463 26.3734 227.463 24.6761C227.463 22.9788 226.117 21.6029 224.456 21.6029C222.796 21.6029 221.45 22.9788 221.45 24.6761C221.45 26.3734 222.796 27.7494 224.456 27.7494Z" fill="#3F3D56"/>
<path d="M214.071 27.7494C215.731 27.7494 217.077 26.3734 217.077 24.6761C217.077 22.9788 215.731 21.6029 214.071 21.6029C212.411 21.6029 211.065 22.9788 211.065 24.6761C211.065 26.3734 212.411 27.7494 214.071 27.7494Z" fill="#3F3D56"/>
<path d="M189.471 71.1574H147.426C145.984 71.1574 144.81 69.9838 144.81 68.5414C144.81 67.099 145.984 65.9254 147.426 65.9254H189.471C190.913 65.9254 192.087 67.099 192.087 68.5414C192.087 69.9838 190.913 71.1574 189.471 71.1574Z" fill="#E6E6E6"/>
<path d="M222.283 80.0114H147.426C145.984 80.0114 144.81 78.8378 144.81 77.3954C144.81 75.953 145.984 74.7795 147.426 74.7795H222.283C223.725 74.7795 224.899 75.953 224.899 77.3954C224.899 78.8378 223.725 80.0114 222.283 80.0114Z" fill="#E6E6E6"/>
<path d="M236.449 93.7646H133.261C131.033 93.7646 129.221 91.9521 129.221 89.7244V56.2126C129.221 53.9849 131.033 52.1724 133.261 52.1724H236.449C238.676 52.1724 240.489 53.9849 240.489 56.2126V89.7244C240.489 91.9521 238.676 93.7646 236.449 93.7646ZM133.261 52.8833C131.425 52.8833 129.932 54.3768 129.932 56.2126V89.7244C129.932 91.5601 131.425 93.0536 133.261 93.0536H236.449C238.284 93.0536 239.778 91.5601 239.778 89.7244V56.2126C239.778 54.3768 238.284 52.8833 236.449 52.8833H133.261Z" fill="#3F3D56"/>
<path d="M238.408 102.736C243.316 102.736 247.295 98.7574 247.295 93.8491C247.295 88.9409 243.316 84.9619 238.408 84.9619C233.499 84.9619 229.521 88.9409 229.521 93.8491C229.521 98.7574 233.499 102.736 238.408 102.736Z" fill="#3F72AF"/>
<path d="M240.585 90.9988C239.874 90.1412 238.687 89.6352 237.585 89.9575C236.575 90.2527 235.734 91.2092 235.828 92.3004C235.872 92.8069 236.078 93.2934 236.433 93.6611C236.834 94.0764 237.345 94.2198 237.905 94.2671C238.503 94.3175 239.016 94.4065 239.414 94.8991C239.76 95.3275 239.869 95.8958 239.67 96.4139C239.199 97.6452 237.531 97.7885 236.834 96.6814C236.561 96.2468 235.868 96.6478 236.143 97.0851C236.712 97.9878 237.868 98.4848 238.906 98.1473C239.917 97.819 240.659 96.7714 240.565 95.7C240.467 94.5875 239.581 93.6707 238.481 93.5199C237.901 93.4405 237.294 93.5039 236.902 92.9851C236.596 92.5796 236.53 92.019 236.761 91.5646C237.044 91.01 237.659 90.6614 238.275 90.6602C238.974 90.6589 239.585 91.0398 240.019 91.5643C240.348 91.961 240.911 91.3924 240.585 90.9988Z" fill="white"/>
<path d="M237.473 88.3502L237.089 99.537C237.077 99.8802 237.61 99.8798 237.622 99.537L238.006 88.3502C238.018 88.007 237.485 88.0074 237.473 88.3502Z" fill="white"/>
<path d="M238.717 88.3502L238.332 99.537C238.32 99.8802 238.854 99.8798 238.865 99.537L239.25 88.3502C239.262 88.007 238.728 88.0074 238.717 88.3502Z" fill="white"/>
<path d="M33.6653 208.562L37.4413 208.561L39.2375 193.997L33.6646 193.997L33.6653 208.562Z" fill="#A0616A"/>
<path d="M33.5324 212.501L45.144 212.5V212.354C45.1438 209.858 43.1204 207.834 40.6244 207.834L38.5031 206.225L34.5458 207.834L33.5322 207.834L33.5324 212.501Z" fill="#2F2E41"/>
<path d="M56.741 208.562L60.5169 208.561L62.3132 193.997L56.7402 193.997L56.741 208.562Z" fill="#A0616A"/>
<path d="M56.6081 212.501L68.2196 212.5V212.354C68.2195 209.858 66.1961 207.834 63.7001 207.834L61.5788 206.225L57.6215 207.834L56.6079 207.834L56.6081 212.501Z" fill="#2F2E41"/>
<path d="M30.3296 115.907L64.8607 114.947L64.6395 134.428L62.8177 157.2C62.8177 157.2 67.0685 173.9 63.425 190.599L63.1213 203.352L53.4053 202.744C53.4053 202.744 51.7353 177.695 53.8607 168.283L47.4845 134.277L41.412 167.372C41.412 167.372 42.3229 186.5 39.8939 194.091V201.245H33.024C33.024 201.245 25.6234 176.177 31.0887 163.425L30.3296 115.907Z" fill="#2F2E41"/>
<path d="M55.1664 59.2964C55.1664 59.2964 54.2346 56.9583 53.5388 55.9147C48.6687 55.9147 48.0498 56.2492 43.7986 55.9147L31.9977 119.272C31.9977 119.272 25.5099 124.739 32.6341 124.739C39.7583 124.739 50.0303 122.751 52.8469 124.242C55.6634 125.733 64.6101 123.414 64.6101 123.414L55.1664 59.2964Z" fill="#3F72AF"/>
<path d="M43.9928 55.789L39.624 60.437L36.7388 60.4751C34.0703 60.5104 31.9315 62.6946 31.9522 65.3633L32.8569 91.9879C32.8569 91.9879 24.6811 117.317 30.1485 118.311L29.1544 122.121L39.6424 128.583C39.6424 128.583 42.8232 111.568 43.3202 107.757C43.8173 103.947 46.2874 82.4718 46.2874 82.4718C46.2874 82.4718 45.8054 64.8061 45.4741 63.1696L43.9928 55.789Z" fill="#2F2E41"/>
<path d="M53.6753 55.9828L51.5215 67.0832L56.9889 96.4084C56.9889 96.4084 55.6634 123.58 59.8054 126.23L66.3329 124.541L65.8359 119.239C65.8359 119.239 66.4326 117.947 66.1012 112.976C65.7698 108.006 63.8172 98.9453 63.8172 98.9453L66.7092 65.9235C66.7092 65.9235 59.4741 59.1307 56.3262 59.9591L53.6753 55.9828Z" fill="#2F2E41"/>
<path d="M17.9731 118.395L18.6468 109.356L23.8638 109.021L22.8116 118.551C22.9802 118.791 23.1174 119.058 23.2138 119.351C23.7375 120.943 22.872 122.657 21.2804 123.181C19.6889 123.705 17.9741 122.839 17.4503 121.248C17.1163 120.233 17.3491 119.169 17.9731 118.395Z" fill="#A0616A"/>
<path d="M38.0623 60.5837L35.314 60.6293C33.2825 60.6629 31.4872 61.959 30.8158 63.8767L20.5167 93.2964L19.4476 98.7822C19.4476 98.7822 14.507 110.629 16.3594 112.421L17.2426 115.72L23.7938 115.612L23.749 112.908C23.749 112.908 25.7495 112.721 25.74 110.339C25.74 110.339 30.9245 101.409 29.5526 98.6149L33.0846 91.7627L38.0623 60.5837Z" fill="#2F2E41"/>
<path d="M102.41 106.916L95.7615 100.756L91.7126 104.063L98.9737 110.326C99.0132 110.616 99.0949 110.905 99.2237 111.185C99.924 112.707 101.726 113.374 103.248 112.673C104.77 111.973 105.436 110.171 104.736 108.649C104.289 107.679 103.394 107.058 102.41 106.916Z" fill="#A0616A"/>
<path d="M62.5091 62.6428L59.1743 75.5247L70.8528 91.5743L74.6551 95.6706C74.6551 95.6706 91.0315 108.465 93.5709 108.024L96.7571 109.255L100.53 103.898L98.3192 102.341C98.3192 102.341 99.3462 100.614 97.4164 99.2182C97.4164 99.2182 83.5402 87.9457 80.4743 87.4076L77.0191 80.5163L66.4614 65.8087L62.5091 62.6428Z" fill="#2F2E41"/>
<path d="M54.563 53.1322C54.5174 53.1687 54.4748 53.196 54.4292 53.2234C54.0765 53.4575 53.7086 53.6673 53.3224 53.8467C53.3164 53.8528 53.3073 53.8559 53.2981 53.8589C52.6018 54.1873 51.8508 54.4336 51.0572 54.5795C50.2453 54.7285 49.4395 54.7681 48.6551 54.7042C44.614 54.3849 41.1356 51.396 40.3632 47.2212C40.1048 45.8286 40.1777 44.4542 40.5213 43.1741C41.4122 39.8659 44.1276 37.1962 47.7216 36.5303C52.7052 35.609 57.4912 38.902 58.4125 43.8856C59.0936 47.5708 57.4699 51.1497 54.563 53.1322Z" fill="#A0616A"/>
<path d="M43.7988 52.9081L44.3524 50.3514C44.3524 50.3514 42.8455 49.0398 44.3524 47.8202L45.1725 47.2875H46.4246L47.2332 43.1661L52.3849 42.8226C52.3849 42.8226 57.5366 41.7923 58.2235 40.0751C58.2235 40.0751 56.5063 39.7316 56.8497 38.3578C56.8497 38.3578 52.7284 33.2061 48.9505 34.5799C45.1725 35.9537 43.7987 37.3275 43.7987 37.3275C43.7987 37.3275 37.6167 36.2971 37.6167 43.853C37.6167 51.4088 43.7988 52.9081 43.7988 52.9081Z" fill="#2F2E41"/>
<path d="M100.266 118.87H89.8869C88.7616 118.87 87.8462 117.955 87.8462 116.83V96.9976C87.8462 95.8724 88.7616 94.9569 89.8869 94.9569H100.266C101.391 94.9569 102.307 95.8724 102.307 96.9976V116.83C102.307 117.955 101.391 118.87 100.266 118.87Z" fill="#3F3D56"/>
<path d="M102.307 102.252C102.259 102.252 102.22 102.291 102.22 102.338V105.101C102.22 105.148 102.259 105.187 102.307 105.187C102.354 105.187 102.393 105.148 102.393 105.101V102.338C102.393 102.291 102.354 102.252 102.307 102.252Z" fill="#3F3D56"/>
<path d="M102.112 96.9976V116.829C102.112 117.809 101.35 118.61 100.386 118.672H100.386C100.372 118.673 100.357 118.674 100.343 118.674C100.317 118.676 100.292 118.676 100.266 118.676C100.266 118.676 100.171 118.669 99.9973 118.656C99.822 118.643 99.5669 118.624 99.2488 118.598C99.1534 118.591 99.0528 118.583 98.9466 118.574C98.7351 118.557 98.5029 118.538 98.2538 118.516C98.1546 118.508 98.0518 118.499 97.9469 118.49C97.4108 118.444 96.8104 118.39 96.1772 118.329C96.0701 118.319 95.9622 118.308 95.8534 118.297C95.8249 118.294 95.796 118.292 95.7671 118.289C95.3156 118.244 94.8516 118.196 94.3858 118.146C94.3569 118.143 94.328 118.139 94.2995 118.136C93.497 118.048 92.6916 117.952 91.9379 117.848C91.3582 117.769 90.8091 117.685 90.3162 117.598C90.1556 117.57 90.0011 117.541 89.8535 117.512C89.8245 117.507 89.7956 117.501 89.7671 117.495C88.7238 117.286 88.0405 117.061 88.0405 116.829V96.9976C88.0405 95.9776 88.8671 95.151 89.8871 95.151H90.9896C91.1657 95.151 91.3073 95.2883 91.3224 95.464C91.3237 95.4756 91.325 95.4873 91.3271 95.4989C91.3591 95.6755 91.5209 95.7985 91.7005 95.7985H98.4524C98.632 95.7985 98.7938 95.6755 98.8258 95.4989C98.8279 95.4873 98.8292 95.4756 98.8305 95.464C98.8456 95.2883 98.9872 95.151 99.1633 95.151H100.266C101.286 95.151 102.112 95.9776 102.112 96.9976Z" fill="#3F72AF"/>
<path d="M87.8031 100.18C87.7555 100.18 87.7168 100.219 87.7168 100.266V100.957C87.7168 101.004 87.7555 101.043 87.8031 101.043C87.8507 101.043 87.8895 101.004 87.8895 100.957V100.266C87.8895 100.219 87.8507 100.18 87.8031 100.18Z" fill="#3F3D56"/>
<path d="M87.8031 102.252C87.7555 102.252 87.7168 102.291 87.7168 102.338V103.676C87.7168 103.724 87.7555 103.763 87.8031 103.763C87.8507 103.763 87.8895 103.724 87.8895 103.676V102.338C87.8895 102.291 87.8507 102.252 87.8031 102.252Z" fill="#3F3D56"/>
<path d="M87.8031 104.151C87.7555 104.151 87.7168 104.19 87.7168 104.237V105.576C87.7168 105.623 87.7555 105.662 87.8031 105.662C87.8507 105.662 87.8895 105.623 87.8895 105.576V104.237C87.8895 104.19 87.8507 104.151 87.8031 104.151Z" fill="#3F3D56"/>
<path d="M90.8678 95.4533H89.4001C89.3406 95.4533 89.2922 95.5016 89.2922 95.5612C89.2922 95.6208 89.3406 95.6691 89.4001 95.6691H90.8678C90.9274 95.6691 90.9757 95.6208 90.9757 95.5612C90.9757 95.5016 90.9274 95.4533 90.8678 95.4533Z" fill="#3F3D56"/>
<path d="M99.4361 95.6691C99.5314 95.6691 99.6087 95.5918 99.6087 95.4965C99.6087 95.4011 99.5314 95.3238 99.4361 95.3238C99.3407 95.3238 99.2634 95.4011 99.2634 95.4965C99.2634 95.5918 99.3407 95.6691 99.4361 95.6691Z" fill="#3F3D56"/>
<path d="M99.911 95.6691C100.006 95.6691 100.084 95.5918 100.084 95.4965C100.084 95.4011 100.006 95.3238 99.911 95.3238C99.8156 95.3238 99.7383 95.4011 99.7383 95.4965C99.7383 95.5918 99.8156 95.6691 99.911 95.6691Z" fill="#3F3D56"/>
<path d="M100.386 95.6691C100.481 95.6691 100.558 95.5918 100.558 95.4965C100.558 95.4011 100.481 95.3238 100.386 95.3238C100.29 95.3238 100.213 95.4011 100.213 95.4965C100.213 95.5918 100.29 95.6691 100.386 95.6691Z" fill="#3F3D56"/>
<path d="M95.3059 112.567C98.3243 112.567 100.771 110.12 100.771 107.102C100.771 104.084 98.3243 101.637 95.3059 101.637C92.2875 101.637 89.8406 104.084 89.8406 107.102C89.8406 110.12 92.2875 112.567 95.3059 112.567Z" fill="white"/>
<path d="M96.6447 105.349C96.2076 104.822 95.4777 104.511 94.7996 104.709C94.1785 104.89 93.6616 105.478 93.7195 106.15C93.7464 106.461 93.8733 106.76 94.0916 106.986C94.338 107.242 94.6521 107.33 94.9967 107.359C95.3644 107.39 95.6799 107.445 95.9248 107.748C96.1377 108.011 96.2042 108.361 96.0822 108.679C95.7923 109.436 94.7668 109.525 94.3381 108.844C94.1698 108.576 93.744 108.823 93.9134 109.092C94.2629 109.647 94.9736 109.953 95.6124 109.745C96.2337 109.543 96.69 108.899 96.6322 108.24C96.5722 107.556 96.0275 106.992 95.3507 106.899C94.9941 106.851 94.6211 106.89 94.3799 106.571C94.1914 106.321 94.1509 105.976 94.2934 105.697C94.4673 105.356 94.8455 105.142 95.2241 105.141C95.654 105.14 96.0295 105.374 96.2969 105.697C96.4991 105.941 96.8454 105.591 96.6447 105.349Z" fill="#3F72AF"/>
<path d="M94.7309 103.72L94.4945 110.6C94.4873 110.811 94.8152 110.811 94.8224 110.6L95.0588 103.72C95.066 103.509 94.7381 103.51 94.7309 103.72Z" fill="#3F72AF"/>
<path d="M95.4958 103.72L95.2594 110.6C95.2521 110.811 95.5801 110.811 95.5873 110.6L95.8237 103.72C95.8309 103.509 95.503 103.51 95.4958 103.72Z" fill="#3F72AF"/>
<path d="M18.8748 207.151C18.1562 207.196 17.759 206.303 18.3027 205.783L18.3568 205.568C18.3497 205.551 18.3425 205.533 18.3353 205.516C17.6085 203.783 15.1454 203.795 14.4248 205.531C13.7852 207.071 12.9709 208.614 12.7704 210.243C12.6806 210.962 12.721 211.694 12.8805 212.4C11.3819 209.126 10.5933 205.552 10.5933 201.957C10.5933 201.053 10.6427 200.15 10.7438 199.249C10.8269 198.512 10.9415 197.78 11.0898 197.054C11.8919 193.131 13.6287 189.395 16.1339 186.274C17.3382 185.615 18.3426 184.586 18.9492 183.353C19.1671 182.908 19.3379 182.429 19.4188 181.942C19.2817 181.96 18.902 179.873 19.0054 179.745C18.8144 179.455 18.4725 179.311 18.2639 179.028C17.2265 177.621 15.7971 177.867 15.051 179.778C13.4569 180.583 13.4415 181.917 14.4196 183.2C15.0418 184.017 15.1273 185.121 15.6733 185.995C15.6171 186.067 15.5587 186.137 15.5026 186.209C14.4725 187.53 13.5816 188.95 12.8306 190.442C13.0428 188.784 12.7295 186.786 12.1952 185.499C11.5871 184.032 10.4472 182.796 9.44345 181.528C8.23775 180.004 5.76533 180.669 5.55291 182.6C5.55086 182.619 5.54886 182.638 5.54689 182.656C5.69599 182.741 5.84205 182.83 5.98473 182.924C6.79856 183.462 6.5173 184.724 5.553 184.873L5.53117 184.876C5.5851 185.413 5.67722 185.946 5.81201 186.469C4.52428 191.449 7.3044 193.263 11.274 193.345C11.3617 193.389 11.4471 193.434 11.5347 193.477C11.1325 194.61 10.8112 195.771 10.573 196.948C10.3596 197.989 10.2113 199.04 10.1282 200.096C10.0248 201.429 10.0338 202.768 10.1461 204.098L10.1394 204.051C9.85407 202.586 9.05868 201.217 7.9038 200.269C6.18339 198.856 3.75277 198.336 1.89675 197.2C1.00331 196.653 -0.141556 197.359 0.0143719 198.395L0.0219624 198.445C0.298318 198.557 0.567929 198.688 0.828564 198.834C0.97766 198.918 1.12372 199.007 1.2664 199.101C2.08023 199.64 1.79897 200.901 0.834676 201.05L0.812823 201.053C0.7971 201.056 0.783613 201.058 0.76791 201.06C1.24199 202.186 1.90254 203.231 2.72937 204.132C3.53455 208.479 6.99283 208.891 10.6921 207.625H10.6944C11.0988 209.387 11.6897 211.108 12.4491 212.748H18.7178C18.7402 212.678 18.7605 212.607 18.7807 212.537C18.201 212.573 17.6168 212.539 17.0461 212.434C17.5112 211.863 17.9763 211.288 18.4414 210.717C18.4526 210.706 18.4616 210.695 18.4706 210.683C18.7065 210.391 18.9447 210.101 19.1806 209.809L19.1807 209.809C19.1955 208.912 19.0878 208.018 18.8748 207.151Z" fill="#F2F2F2"/>
<path d="M88.9879 212.767C88.9879 212.996 88.8035 213.181 88.5739 213.181H0.462789C0.233208 213.181 0.0488281 212.996 0.0488281 212.767C0.0488281 212.537 0.233208 212.353 0.462789 212.353H88.5739C88.8035 212.353 88.9879 212.537 88.9879 212.767Z" fill="#CCCCCC"/>
</g>
<defs>
<clipPath id="clip0_42_80">
<rect width="280" height="213.181" fill="white"/>
</clipPath>
</defs>
</svg>
